<?xml version="1.0" standalone="no"?><!DOCTYPE svg PUBLIC "-//W3C//DTD SVG 1.1//EN" "http://www.w3.org/Graphics/SVG/1.1/DTD/svg11.dtd"><svg class="icon" width="200px" height="200.00px" viewBox="0 0 1024 1024" version="1.1" xmlns="http://www.w3.org/2000/svg"><path d="M400.384 910.336C400.384 972.8 450.048 1024 512 1024c61.44 0 111.616-51.2 111.616-113.664S573.952 796.672 512 796.672 400.384 847.36 400.384 910.336z m0-398.336c0 62.464 49.664 113.664 111.616 113.664 61.44 0 111.616-51.2 111.616-113.664S573.952 398.336 512 398.336 400.384 449.536 400.384 512z m0-398.336c0 62.464 49.664 113.664 111.616 113.664 61.44 0 111.616-51.2 111.616-113.664S573.952 0 512 0 400.384 51.2 400.384 113.664z" fill="#1890FF" /></svg>